<svg xmlns="http://www.w3.org/2000/svg" viewBox="0 0 1200 600">
  <!-- Blue stripe -->
  <rect width="1200" height="200" fill="#0092BC"/>
  <!-- Red stripe -->
  <rect y="200" width="1200" height="200" fill="#E4002B"/>
  <!-- Green stripe -->
  <rect y="400" width="1200" height="200" fill="#509E2F"/>
  
  <!-- White crescent moon -->
  <path d="M560 230 A 70 70 0 1 1 560 370 A 56 56 0 1 0 560 230" fill="#fff"/>
  
  <!-- White 8-pointed star -->
  <g fill="#fff" transform="translate(720, 300)">
    <polygon points="0,-50 10,-18 44,-18 18,4 28,38 0,16 -28,38 -18,4 -44,-18 -10,-18"/>
    <polygon points="0,50 10,18 44,18 18,-4 28,-38 0,-16 -28,-38 -18,-4 -44,18 -10,18"/>
  </g>
</svg>